<?xml version="1.0" standalone="no"?>
<!DOCTYPE svg PUBLIC "-//W3C//DTD SVG 20010904//EN"
 "http://www.w3.org/TR/2001/REC-SVG-20010904/DTD/svg10.dtd">
<svg version="1.0" xmlns="http://www.w3.org/2000/svg"
 width="87.000000pt" height="173.000000pt" viewBox="0 0 87.000000 173.000000"
 preserveAspectRatio="xMidYMid meet">

<g transform="translate(0.000000,173.000000) scale(0.100000,-0.100000)"
fill="#000000" stroke="none">
<path d="M409 1714 c-8 -9 -8 -14 -1 -14 6 0 14 5 17 10 3 6 11 10 16 10 6 0
7 -4 4 -10 -9 -14 7 -12 28 4 16 13 15 14 -17 14 -19 0 -40 -6 -47 -14z"/>
<path d="M387 1668 c-3 -10 -1 -18 4 -18 5 0 9 5 9 11 0 5 5 7 10 4 6 -3 10 0
10 8 0 20 -28 17 -33 -5z"/>
<path d="M431 1673 c-1 -25 17 -30 38 -10 11 10 13 9 8 -5 -3 -10 -2 -20 4
-23 17 -11 -2 -26 -24 -19 -12 4 -36 8 -53 10 -27 2 -31 -1 -27 -17 3 -10 9
-16 14 -13 12 7 12 -9 0 -21 -5 -6 -11 -21 -13 -35 -2 -19 -20 -32 -90 -67
-48 -23 -91 -50 -96 -60 -27 -52 -102 -373 -117 -503 -1 -14 -10 -42 -19 -62
-23 -54 -20 -66 19 -85 34 -16 36 -16 56 4 16 16 23 41 30 99 13 124 44 266
73 335 l14 34 22 -50 c27 -63 37 -168 21 -230 -7 -29 -8 -52 -3 -58 11 -14 -3
-445 -17 -577 -11 -92 -33 -174 -55 -203 -8 -10 -36 -26 -63 -36 -40 -14 -49
-22 -51 -44 l-3 -27 76 0 c42 0 85 5 96 10 13 7 19 7 19 0 0 -5 11 -10 25 -10
14 0 25 1 25 3 0 2 7 50 15 108 12 93 29 243 55 497 13 125 32 223 43 219 14
-4 42 -108 67 -242 21 -115 41 -381 37 -502 -1 -39 2 -75 6 -80 5 -4 47 -10
93 -12 l84 -3 0 36 c0 29 -5 38 -23 45 -20 8 -26 21 -36 83 -30 181 -70 565
-75 718 -2 41 -6 91 -10 112 -8 36 17 134 59 233 16 37 18 38 31 20 22 -29 50
-127 69 -239 17 -100 17 -100 -6 -147 l-22 -48 24 -25 c27 -29 74 -34 103 -13
15 11 17 21 12 48 -3 19 -10 72 -15 119 -21 200 -63 418 -91 471 -5 9 -49 33
-97 54 -138 58 -136 56 -127 123 6 51 5 56 -9 44 -21 -18 -33 -9 -40 26 -6 30
-36 41 -38 13 0 -12 -3 -11 -9 4 -8 19 -9 19 -9 -2z m59 -82 c2 -1 -1 -6 -8
-13 -7 -7 -12 -22 -12 -35 0 -13 -4 -23 -9 -23 -5 0 -7 8 -4 19 3 10 -1 22 -7
26 -8 5 -10 2 -6 -11 8 -26 -7 -47 -30 -42 -27 5 -31 38 -5 45 12 3 21 10 21
15 0 5 -4 6 -10 3 -5 -3 -10 -1 -10 5 0 7 7 10 15 7 8 -4 17 -2 20 3 3 4 13 7
23 5 9 -2 19 -4 22 -4z m14 -26 c-10 -15 -20 -23 -22 -17 -3 11 29 54 36 48 2
-3 -4 -17 -14 -31z m21 -91 c-10 -8 -28 -14 -39 -14 -13 0 -16 -3 -10 -8 7 -4
1 -15 -18 -30 -15 -13 -28 -19 -28 -13 0 5 8 16 19 23 10 7 19 16 20 20 1 5 8
23 15 40 8 18 18 42 21 53 6 17 9 14 23 -19 14 -37 14 -40 -3 -52z m-207 -96
c7 -7 12 -9 12 -4 0 4 6 1 14 -7 19 -18 15 -46 -9 -59 -13 -8 -16 -7 -11 1 4
6 1 11 -8 11 -9 0 -16 2 -16 4 0 2 -2 11 -5 19 -4 8 0 14 10 14 9 0 14 -6 11
-14 -3 -8 -2 -12 3 -8 5 3 11 -1 14 -7 3 -7 4 -3 4 10 -1 22 -6 25 -39 25 -18
0 -23 9 -11 20 9 10 17 9 31 -5z m258 -9 c10 -17 -13 -36 -27 -22 -12 12 -4
33 11 33 5 0 12 -5 16 -11z m-292 -25 c4 -10 1 -14 -6 -12 -15 5 -23 28 -10
28 5 0 13 -7 16 -16z m11 -34 c3 -5 1 -10 -4 -10 -6 0 -11 5 -11 10 0 6 2 10
4 10 3 0 8 -4 11 -10z m51 -91 c10 -17 -13 -36 -27 -22 -12 12 -4 33 11 33 5
0 12 -5 16 -11z m200 0 c10 -17 -13 -36 -27 -22 -12 12 -4 33 11 33 5 0 12 -5
16 -11z m-180 -130 c10 -17 -13 -36 -27 -22 -12 12 -4 33 11 33 5 0 12 -5 16
-11z m150 0 c10 -17 -13 -36 -27 -22 -12 12 -4 33 11 33 5 0 12 -5 16 -11z
m317 -196 c-7 -2 -21 -2 -30 0 -10 3 -4 5 12 5 17 0 24 -2 18 -5z m-700 -10
c-7 -2 -21 -2 -30 0 -10 3 -4 5 12 5 17 0 24 -2 18 -5z"/>
</g>
</svg>
