<?xml version="1.0" standalone="no"?>
<!DOCTYPE svg PUBLIC "-//W3C//DTD SVG 20010904//EN"
 "http://www.w3.org/TR/2001/REC-SVG-20010904/DTD/svg10.dtd">
<svg version="1.0" xmlns="http://www.w3.org/2000/svg"
 width="780.000000pt" height="440.000000pt" viewBox="0 0 780.000000 440.000000"
 preserveAspectRatio="xMidYMid meet">
<metadata>
Created by potrace 1.16, written by Peter Selinger 2001-2019
</metadata>
<g transform="translate(0.000000,440.000000) scale(0.100000,-0.100000)"
fill="#000000" stroke="none">
<path d="M320 4380 c0 -13 7 -20 20 -20 13 0 20 -7 20 -20 0 -13 7 -20 20 -20
13 0 20 7 20 20 0 13 7 20 20 20 13 0 20 -7 20 -20 0 -13 7 -20 20 -20 17 0
20 -7 20 -40 0 -33 3 -40 20 -40 17 0 20 -7 20 -40 0 -33 3 -40 20 -40 13 0
20 -7 20 -20 0 -13 7 -20 20 -20 17 0 20 -7 20 -40 0 -33 3 -40 20 -40 17 0
20 -7 20 -40 0 -33 3 -40 20 -40 13 0 20 -7 20 -20 0 -13 7 -20 20 -20 17 0
20 -7 20 -40 0 -33 3 -40 20 -40 13 0 20 -7 20 -20 0 -13 7 -20 20 -20 17 0
20 -7 20 -40 0 -33 -3 -40 -20 -40 -13 0 -20 7 -20 20 0 13 -7 20 -20 20 -13
0 -20 7 -20 20 0 17 -7 20 -40 20 -33 0 -40 3 -40 20 0 13 -7 20 -20 20 -17 0
-20 -7 -20 -40 0 -33 3 -40 20 -40 17 0 20 -7 20 -40 0 -33 3 -40 20 -40 13 0
20 -7 20 -20 0 -18 7 -20 60 -20 53 0 60 -2 60 -20 0 -13 7 -20 20 -20 13 0
20 -7 20 -20 0 -13 7 -20 20 -20 13 0 20 -7 20 -20 0 -13 7 -20 20 -20 13 0
20 -7 20 -20 0 -13 7 -20 20 -20 13 0 20 -7 20 -20 0 -17 7 -20 40 -20 33 0
40 -3 40 -20 0 -17 7 -20 40 -20 33 0 40 -3 40 -20 0 -13 7 -20 20 -20 13 0
20 7 20 20 0 13 7 20 20 20 13 0 20 -7 20 -20 0 -13 7 -20 20 -20 13 0 20 7
20 20 0 13 7 20 20 20 13 0 20 -7 20 -20 0 -13 7 -20 20 -20 13 0 20 -7 20
-20 0 -13 7 -20 20 -20 13 0 20 -7 20 -20 0 -13 7 -20 20 -20 13 0 20 -7 20
-20 0 -13 -7 -20 -20 -20 -13 0 -20 -7 -20 -20 0 -13 7 -20 20 -20 13 0 20 7
20 20 0 13 7 20 20 20 13 0 20 -7 20 -20 0 -13 7 -20 20 -20 13 0 20 -7 20
-20 0 -17 7 -20 40 -20 33 0 40 -3 40 -20 0 -13 7 -20 20 -20 13 0 20 -7 20
-20 0 -13 7 -20 20 -20 13 0 20 -7 20 -20 0 -13 7 -20 20 -20 13 0 20 7 20 20
0 13 -7 20 -20 20 -13 0 -20 7 -20 20 0 13 -7 20 -20 20 -18 0 -20 7 -20 60 0
53 2 60 20 60 13 0 20 -7 20 -20 0 -13 7 -20 20 -20 13 0 20 -7 20 -20 0 -13
7 -20 20 -20 13 0 20 -7 20 -20 0 -13 7 -20 20 -20 13 0 20 -7 20 -20 0 -13 7
-20 20 -20 13 0 20 -7 20 -20 0 -13 7 -20 20 -20 13 0 20 -7 20 -20 0 -13 7
-20 20 -20 13 0 20 -7 20 -20 0 -17 7 -20 40 -20 l40 0 0 -40 0 -40 40 0 c33
0 40 -3 40 -20 0 -13 7 -20 20 -20 13 0 20 -7 20 -20 0 -17 7 -20 40 -20 33 0
40 -3 40 -20 0 -17 7 -20 40 -20 33 0 40 -3 40 -20 0 -13 7 -20 20 -20 13 0
20 -7 20 -20 0 -13 7 -20 20 -20 13 0 20 -7 20 -20 0 -13 7 -20 20 -20 13 0
20 -7 20 -20 0 -13 7 -20 20 -20 13 0 20 -7 20 -20 0 -18 7 -20 80 -20 l80 0
0 40 c0 33 3 40 20 40 13 0 20 7 20 20 0 13 7 20 20 20 19 0 20 -7 20 -100 l0
-100 -40 0 c-33 0 -40 -3 -40 -20 0 -13 7 -20 20 -20 13 0 20 -7 20 -20 0 -13
7 -20 20 -20 18 0 20 -7 20 -60 0 -53 -2 -60 -20 -60 -13 0 -20 -7 -20 -20 0
-13 -7 -20 -20 -20 -13 0 -20 -7 -20 -20 0 -13 -7 -20 -20 -20 -13 0 -20 -7
-20 -20 0 -13 7 -20 20 -20 13 0 20 7 20 20 0 13 7 20 20 20 13 0 20 7 20 20
0 13 7 20 20 20 17 0 20 -7 20 -40 0 -33 3 -40 20 -40 13 0 20 -7 20 -20 0
-13 7 -20 20 -20 13 0 20 -7 20 -20 0 -17 7 -20 40 -20 33 0 40 -3 40 -20 0
-13 7 -20 20 -20 13 0 20 -7 20 -20 0 -13 7 -20 20 -20 13 0 20 -7 20 -20 0
-18 7 -20 60 -20 53 0 60 -2 60 -20 0 -13 7 -20 20 -20 13 0 20 7 20 20 0 13
-7 20 -20 20 -17 0 -20 7 -20 40 0 33 -3 40 -20 40 -18 0 -20 7 -20 60 0 53
-2 60 -20 60 -13 0 -20 7 -20 20 0 13 -7 20 -20 20 -13 0 -20 7 -20 20 0 13 7
20 20 20 13 0 20 7 20 20 0 13 7 20 20 20 13 0 20 -7 20 -20 0 -13 7 -20 20
-20 13 0 20 -7 20 -20 0 -13 7 -20 20 -20 13 0 20 -7 20 -20 0 -13 7 -20 20
-20 13 0 20 -7 20 -20 0 -13 7 -20 20 -20 13 0 20 -7 20 -20 0 -13 7 -20 20
-20 13 0 20 -7 20 -20 0 -13 7 -20 20 -20 13 0 20 -7 20 -20 0 -13 7 -20 20
-20 13 0 20 -7 20 -20 0 -13 7 -20 20 -20 13 0 20 7 20 20 0 13 -7 20 -20 20
-13 0 -20 7 -20 20 0 13 -7 20 -20 20 -17 0 -20 7 -20 40 0 33 -3 40 -20 40
-13 0 -20 7 -20 20 0 17 7 20 40 20 l40 0 0 -40 c0 -33 3 -40 20 -40 13 0 20
-7 20 -20 0 -13 7 -20 20 -20 13 0 20 7 20 20 0 13 7 20 20 20 13 0 20 7 20
20 0 13 7 20 20 20 18 0 20 -7 20 -60 0 -53 2 -60 20 -60 18 0 20 -7 20 -60 0
-53 2 -60 20 -60 13 0 20 -7 20 -20 0 -13 7 -20 20 -20 13 0 20 7 20 20 0 13
7 20 20 20 13 0 20 -7 20 -20 0 -13 7 -20 20 -20 17 0 20 -7 20 -40 0 -33 3
-40 20 -40 13 0 20 -7 20 -20 0 -13 7 -20 20 -20 18 0 20 -7 20 -60 0 -53 2
-60 20 -60 13 0 20 -7 20 -20 0 -13 7 -20 20 -20 13 0 20 -7 20 -20 0 -13 7
-20 20 -20 17 0 20 -7 20 -40 0 -33 3 -40 20 -40 13 0 20 -7 20 -20 0 -13 -7
-20 -20 -20 -13 0 -20 -7 -20 -20 0 -13 7 -20 20 -20 13 0 20 -7 20 -20 0 -17
7 -20 40 -20 33 0 40 -3 40 -20 0 -13 7 -20 20 -20 13 0 20 -7 20 -20 0 -19
-7 -20 -100 -20 -93 0 -100 1 -100 20 0 17 -7 20 -40 20 -33 0 -40 3 -40 20 0
18 -7 20 -60 20 -53 0 -60 2 -60 20 0 13 -7 20 -20 20 -13 0 -20 -7 -20 -20 0
-13 -7 -20 -20 -20 -13 0 -20 -7 -20 -20 0 -13 7 -20 20 -20 17 0 20 -7 20
-40 l0 -40 40 0 c33 0 40 -3 40 -20 0 -13 7 -20 20 -20 13 0 20 -7 20 -20 0
-17 7 -20 40 -20 33 0 40 -3 40 -20 0 -19 7 -20 120 -20 113 0 120 -1 120 -20
0 -18 -7 -20 -60 -20 -53 0 -60 -2 -60 -20 0 -17 -7 -20 -40 -20 -33 0 -40 -3
-40 -20 0 -17 -7 -20 -40 -20 -33 0 -40 -3 -40 -20 0 -19 7 -20 120 -20 113 0
120 -1 120 -20 0 -13 -7 -20 -20 -20 -17 0 -20 -7 -20 -40 l0 -40 60 0 c53 0
60 -2 60 -20 0 -13 7 -20 20 -20 13 0 20 -7 20 -20 0 -19 -7 -20 -100 -20 -93
0 -100 -1 -100 -20 0 -17 7 -20 40 -20 33 0 40 -3 40 -20 0 -18 -7 -20 -60
-20 -53 0 -60 -2 -60 -20 0 -13 -7 -20 -20 -20 -13 0 -20 -7 -20 -20 0 -13 7
-20 20 -20 13 0 20 -7 20 -20 0 -13 -7 -20 -20 -20 -13 0 -20 -7 -20 -20 0
-13 -7 -20 -20 -20 -13 0 -20 -7 -20 -20 0 -18 -7 -20 -74 -20 -50 0 -76 4
-79 13 -3 6 -6 -12 -6 -40 l-1 -53 40 0 c33 0 40 3 40 20 0 13 7 20 20 20 17
0 20 -7 20 -40 0 -33 3 -40 20 -40 13 0 20 -7 20 -20 0 -13 -7 -20 -20 -20
-13 0 -20 -7 -20 -20 0 -19 -7 -20 -100 -20 -93 0 -100 -1 -100 -20 0 -18 7
-20 60 -20 l60 0 0 -60 c0 -53 -2 -60 -20 -60 -17 0 -20 -7 -20 -40 l0 -40
720 0 c713 0 720 0 720 20 0 18 -7 20 -80 20 l-80 0 0 40 0 40 -280 0 c-273 0
-280 0 -280 -20 0 -18 7 -20 80 -20 73 0 80 -2 80 -20 0 -20 -7 -20 -280 -20
-273 0 -280 0 -280 20 0 19 7 20 100 20 93 0 100 1 100 20 0 18 7 20 60 20 53
0 60 2 60 20 0 18 7 20 60 20 53 0 60 2 60 20 0 19 7 20 180 20 173 0 180 -1
180 -20 0 -19 7 -20 100 -20 93 0 100 -1 100 -20 0 -19 7 -20 140 -20 133 0
140 -1 140 -20 0 -17 -7 -20 -40 -20 l-40 0 0 -40 0 -40 1360 0 1360 0 0 2200
0 2200 -3700 0 c-3693 0 -3700 0 -3700 -20 0 -13 -7 -20 -20 -20 -13 0 -20 7
-20 20 0 13 -7 20 -20 20 -13 0 -20 -7 -20 -20z m4720 -1720 c0 -53 -2 -60
-20 -60 -13 0 -20 -7 -20 -20 0 -18 7 -20 60 -20 53 0 60 -2 60 -20 0 -13 -7
-20 -20 -20 -17 0 -20 -7 -20 -40 l0 -40 40 0 c33 0 40 -3 40 -20 0 -17 7 -20
40 -20 33 0 40 -3 40 -20 0 -17 7 -20 40 -20 33 0 40 -3 40 -20 0 -17 7 -20
40 -20 33 0 40 -3 40 -20 0 -13 7 -20 20 -20 13 0 20 -7 20 -20 0 -13 7 -20
20 -20 13 0 20 -7 20 -20 0 -13 -7 -20 -20 -20 -13 0 -20 -7 -20 -20 0 -13 -7
-20 -20 -20 -13 0 -20 -7 -20 -20 0 -13 -7 -20 -20 -20 -13 0 -20 7 -20 20 0
17 -7 20 -40 20 -33 0 -40 3 -40 20 0 16 -8 19 -57 22 -58 3 -58 3 -64 38 -4
19 -7 27 -8 18 0 -10 -8 -18 -16 -18 -8 0 -15 -9 -15 -20 0 -13 7 -20 20 -20
17 0 20 -7 20 -40 l0 -40 40 0 c33 0 40 -3 40 -20 0 -13 7 -20 20 -20 13 0 20
-7 20 -20 0 -17 7 -20 40 -20 33 0 40 -3 40 -20 0 -18 7 -20 80 -20 73 0 80
-2 80 -20 0 -17 7 -20 40 -20 33 0 40 -3 40 -20 0 -18 7 -20 60 -20 53 0 60
-2 60 -20 0 -13 7 -20 20 -20 18 0 20 -7 20 -60 0 -53 -2 -60 -20 -60 -13 0
-20 7 -20 20 0 17 -7 20 -40 20 -33 0 -40 3 -40 20 0 18 -7 20 -60 20 -53 0
-60 2 -60 20 0 18 -7 20 -80 20 -73 0 -80 2 -80 20 0 17 -7 20 -40 20 -33 0
-40 3 -40 20 0 17 -7 20 -40 20 -33 0 -40 3 -40 20 0 13 -7 20 -20 20 -13 0
-20 7 -20 20 0 13 -7 20 -20 20 -13 0 -20 7 -20 20 0 13 -7 20 -20 20 -13 0
-20 7 -20 20 0 13 -7 20 -20 20 -17 0 -20 7 -20 40 0 33 -3 40 -20 40 -17 0
-20 7 -20 40 0 33 -3 40 -20 40 -17 0 -20 7 -20 40 0 33 3 40 20 40 13 0 20 7
20 20 0 13 -7 20 -20 20 -13 0 -20 7 -20 20 0 13 -7 20 -20 20 -19 0 -20 7
-20 100 l0 100 -40 0 c-33 0 -40 3 -40 20 0 17 7 20 40 20 33 0 40 3 40 20 0
18 7 20 60 20 l60 0 0 -60z m240 -1640 c0 -16 -7 -20 -32 -21 -18 0 -27 -3
-20 -6 6 -2 12 -11 12 -19 0 -8 9 -14 20 -14 13 0 20 -7 20 -20 0 -18 -7 -20
-80 -20 -73 0 -80 2 -80 20 0 17 -7 20 -40 20 -33 0 -40 3 -40 20 0 19 -7 20
-100 20 -93 0 -100 1 -100 20 0 19 7 20 220 20 213 0 220 -1 220 -20z m1360 0
c0 -16 -7 -20 -32 -21 -18 0 -27 -3 -20 -6 6 -2 12 -20 12 -39 0 -27 -4 -34
-20 -34 -13 0 -20 7 -20 20 0 19 -7 20 -160 20 l-160 0 0 40 0 40 200 0 c193
0 200 -1 200 -20z m600 -74 c0 -8 -6 -17 -12 -19 -7 -3 29 -6 80 -6 85 -1 92
-2 92 -21 0 -19 -7 -20 -200 -20 -166 0 -200 2 -200 14 0 8 6 17 13 19 6 3
-21 6 -60 6 -66 1 -73 3 -73 21 0 19 7 20 180 20 149 0 180 -2 180 -14z
m-1160 -246 c0 -13 7 -20 20 -20 13 0 20 -7 20 -20 0 -13 7 -20 20 -20 13 0
20 -7 20 -20 0 -18 -7 -20 -80 -20 -73 0 -80 2 -80 20 0 17 -7 20 -40 20 -33
0 -40 3 -40 20 0 13 -7 20 -20 20 -13 0 -20 7 -20 20 0 19 7 20 100 20 93 0
100 -1 100 -20z m1200 -80 c0 -13 -7 -20 -20 -20 -13 0 -20 -7 -20 -20 0 -13
7 -20 20 -20 13 0 20 -7 20 -20 0 -13 -7 -20 -20 -20 -13 0 -20 7 -20 20 0 19
-7 20 -100 20 l-100 0 0 40 0 40 120 0 c113 0 120 -1 120 -20z m-1800 -40 c0
-19 7 -20 220 -20 213 0 220 -1 220 -20 0 -13 7 -20 20 -20 13 0 20 -7 20 -20
0 -18 7 -20 80 -20 73 0 80 -2 80 -20 0 -20 -7 -20 -320 -20 -313 0 -320 0
-320 20 0 19 7 20 120 20 113 0 120 1 120 20 0 19 -7 20 -240 20 -233 0 -240
-1 -240 -20 0 -18 7 -20 60 -20 53 0 60 -2 60 -20 0 -19 -7 -20 -140 -20 -133
0 -140 1 -140 20 0 19 -7 20 -140 20 -133 0 -140 1 -140 20 0 19 -7 20 -100
20 -93 0 -100 -1 -100 -20 0 -18 7 -20 80 -20 73 0 80 -2 80 -20 0 -19 -7 -20
-160 -20 -153 0 -160 1 -160 20 0 13 7 20 20 20 13 0 20 7 20 20 0 17 -7 20
-40 20 -33 0 -40 3 -40 20 0 19 7 20 200 20 193 0 200 -1 200 -20 0 -19 7 -20
100 -20 l100 0 0 40 0 40 240 0 c233 0 240 -1 240 -20z m1440 0 c0 -19 -7 -20
-120 -20 -113 0 -120 -1 -120 -20 0 -18 -7 -20 -80 -20 -73 0 -80 2 -80 20 0
18 7 20 80 20 73 0 80 2 80 20 0 19 7 20 120 20 113 0 120 -1 120 -20z m-2600
-60 c0 -33 3 -40 20 -40 13 0 20 -7 20 -20 0 -13 -7 -20 -20 -20 -13 0 -20 7
-20 20 0 19 -7 20 -100 20 -93 0 -100 1 -100 20 0 17 -7 20 -40 20 -33 0 -40
-3 -40 -20 0 -13 -7 -20 -20 -20 -13 0 -20 7 -20 20 0 13 7 20 20 20 13 0 20
7 20 20 0 19 7 20 140 20 l140 0 0 -40z m2760 -60 c0 -19 -7 -20 -240 -20
-233 0 -240 1 -240 20 0 19 7 20 240 20 233 0 240 -1 240 -20z m-1880 -160 c0
-19 -7 -20 -200 -20 -193 0 -200 1 -200 20 0 19 7 20 200 20 193 0 200 -1 200
-20z m2040 0 c0 -19 -7 -20 -260 -20 -253 0 -260 -1 -260 -20 0 -18 7 -20 60
-20 53 0 60 -2 60 -20 0 -19 7 -20 220 -20 213 0 220 -1 220 -20 0 -17 7 -20
40 -20 33 0 40 -3 40 -20 0 -19 -7 -20 -160 -20 -153 0 -160 1 -160 20 0 20
-7 20 -280 20 -273 0 -280 0 -280 20 0 17 -7 20 -40 20 -33 0 -40 -3 -40 -20
0 -19 -7 -20 -200 -20 -193 0 -200 1 -200 20 0 19 7 20 120 20 113 0 120 1
120 20 0 19 -7 20 -100 20 -93 0 -100 1 -100 20 0 20 7 20 280 20 273 0 280 0
280 20 0 20 7 20 320 20 313 0 320 0 320 -20z"/>
<path d="M1880 2620 c0 -13 7 -20 20 -20 13 0 20 -7 20 -20 0 -13 7 -20 20
-20 13 0 20 -7 20 -20 0 -17 7 -20 40 -20 33 0 40 -3 40 -20 0 -13 7 -20 20
-20 13 0 20 -7 20 -20 0 -13 7 -20 20 -20 13 0 20 -7 20 -20 0 -18 7 -20 60
-20 53 0 60 -2 60 -20 0 -13 7 -20 20 -20 13 0 20 -7 20 -20 0 -17 7 -20 40
-20 33 0 40 3 40 20 0 13 7 20 20 20 13 0 20 7 20 20 0 13 7 20 20 20 17 0 20
7 20 40 0 33 3 40 20 40 13 0 20 7 20 20 0 13 -7 20 -20 20 -13 0 -20 -7 -20
-20 0 -17 -7 -20 -40 -20 -33 0 -40 3 -40 20 0 13 -7 20 -20 20 -13 0 -20 7
-20 20 0 17 -7 20 -40 20 -33 0 -40 3 -40 20 0 13 -7 20 -20 20 -13 0 -20 7
-20 20 0 17 -7 20 -40 20 -33 0 -40 -3 -40 -20 0 -13 7 -20 20 -20 13 0 20 -7
20 -20 0 -13 7 -20 20 -20 13 0 20 -7 20 -20 0 -13 7 -20 20 -20 13 0 20 -7
20 -20 0 -13 7 -20 20 -20 13 0 20 -7 20 -20 0 -13 7 -20 20 -20 13 0 20 -7
20 -20 0 -17 -7 -20 -40 -20 -33 0 -40 3 -40 20 0 13 -7 20 -20 20 -13 0 -20
7 -20 20 0 17 -7 20 -40 20 -33 0 -40 3 -40 20 0 17 -7 20 -40 20 -33 0 -40 3
-40 20 0 13 -7 20 -20 20 -13 0 -20 7 -20 20 0 17 -7 20 -40 20 -33 0 -40 3
-40 20 0 13 -7 20 -20 20 -13 0 -20 -7 -20 -20z"/>
<path d="M2040 2160 c0 -33 3 -40 20 -40 13 0 20 -7 20 -20 0 -13 7 -20 20
-20 13 0 20 -7 20 -20 0 -17 7 -20 40 -20 l40 0 0 40 c0 33 -3 40 -20 40 -13
0 -20 7 -20 20 0 13 -7 20 -20 20 -13 0 -20 7 -20 20 0 17 -7 20 -40 20 l-40
0 0 -40z"/>
<path d="M2480 2100 c0 -13 -7 -20 -20 -20 -17 0 -20 -7 -20 -40 0 -33 -3 -40
-20 -40 -17 0 -20 -7 -20 -40 0 -33 -3 -40 -20 -40 -13 0 -20 -7 -20 -20 0
-13 -7 -20 -20 -20 -13 0 -20 -7 -20 -20 0 -13 -7 -20 -20 -20 -13 0 -20 -7
-20 -20 0 -17 -7 -20 -40 -20 l-40 0 0 -80 c0 -73 2 -80 20 -80 13 0 20 -7 20
-20 0 -13 7 -20 20 -20 17 0 20 -7 20 -40 0 -33 3 -40 20 -40 13 0 20 -7 20
-20 0 -17 7 -20 40 -20 33 0 40 -3 40 -20 0 -18 7 -20 60 -20 l60 0 0 120 c0
113 -1 120 -20 120 -17 0 -20 7 -20 40 0 33 3 40 20 40 13 0 20 7 20 20 0 13
7 20 20 20 17 0 20 7 20 40 0 33 -3 40 -20 40 -17 0 -20 7 -20 40 0 33 -3 40
-20 40 -18 0 -20 7 -20 60 0 53 2 60 20 60 13 0 20 7 20 20 0 13 -7 20 -20 20
-13 0 -20 -7 -20 -20z"/>
</g>
</svg>
