<?xml version="1.0" standalone="no"?>
<!DOCTYPE svg PUBLIC "-//W3C//DTD SVG 20010904//EN"
 "http://www.w3.org/TR/2001/REC-SVG-20010904/DTD/svg10.dtd">
<svg version="1.0" xmlns="http://www.w3.org/2000/svg"
 width="91.000000pt" height="176.000000pt" viewBox="0 0 91.000000 176.000000"
 preserveAspectRatio="xMidYMid meet">

<g transform="translate(0.000000,176.000000) scale(0.100000,-0.100000)"
fill="#000000" stroke="none">
<path d="M437 1714 c21 -16 37 -18 28 -4 -3 6 -2 10 4 10 5 0 13 -4 16 -10 3
-5 11 -10 17 -10 7 0 7 5 -1 14 -7 8 -28 14 -47 14 -32 0 -33 -1 -17 -14z"/>
<path d="M423 1658 c-7 -35 -19 -44 -40 -26 -14 12 -15 7 -9 -44 9 -67 11 -65
-127 -123 -48 -21 -92 -45 -97 -54 -28 -53 -70 -271 -91 -471 -5 -47 -12 -100
-15 -119 -5 -27 -3 -37 12 -48 29 -21 76 -16 103 13 l24 25 -22 48 c-23 47
-23 47 -6 147 19 112 47 210 69 239 13 18 15 17 31 -20 42 -99 67 -197 59
-233 -4 -21 -8 -71 -10 -112 -5 -153 -45 -537 -75 -718 -10 -62 -16 -75 -36
-83 -18 -7 -23 -16 -23 -45 l0 -36 84 3 c46 2 88 8 93 12 4 5 7 41 6 80 -4
121 16 387 37 502 25 134 53 238 67 242 11 4 30 -94 43 -219 26 -254 43 -404
55 -497 8 -58 15 -106 15 -108 0 -2 11 -3 25 -3 14 0 25 5 25 10 0 7 6 7 19 0
11 -5 54 -10 96 -10 l76 0 -3 27 c-2 22 -11 30 -51 44 -27 10 -55 26 -63 36
-22 29 -44 111 -55 203 -14 132 -28 563 -17 577 5 6 4 29 -3 58 -16 62 -6 167
21 230 l22 50 14 -34 c29 -69 60 -211 73 -335 7 -58 14 -83 30 -99 20 -20 22
-20 56 -4 39 19 42 31 19 85 -9 20 -18 48 -19 62 -15 130 -90 451 -117 503 -5
10 -48 37 -96 60 -70 35 -88 48 -90 67 -2 14 -8 29 -13 35 -12 12 -12 28 0 21
5 -3 11 3 14 13 4 16 0 19 -27 17 -17 -2 -41 -6 -53 -10 -22 -7 -41 8 -24 19
6 3 7 13 4 23 -5 14 -3 15 8 5 21 -20 39 -15 38 10 0 21 -1 21 -9 2 -6 -15 -9
-16 -9 -4 -2 28 -32 17 -38 -13z m-13 -79 c0 -6 -4 -7 -10 -4 -5 3 -10 11 -10
16 0 6 5 7 10 4 6 -3 10 -11 10 -16z m56 9 c3 -4 12 -4 20 -1 8 3 14 0 14 -7
0 -6 -4 -8 -10 -5 -5 3 -10 2 -10 -3 0 -5 9 -12 21 -15 26 -7 22 -40 -5 -45
-23 -5 -38 16 -30 42 4 13 2 16 -6 11 -6 -4 -10 -16 -7 -26 3 -11 1 -19 -4
-19 -5 0 -9 11 -9 24 0 14 -5 28 -10 31 -6 4 -8 10 -5 15 6 9 31 8 41 -2z
m-36 -34 c0 -8 -4 -12 -10 -9 -5 3 -10 10 -10 16 0 5 5 9 10 9 6 0 10 -7 10
-16z m-20 -22 c0 -9 9 -32 20 -49 11 -18 17 -33 13 -33 -4 0 3 -7 15 -16 12
-8 22 -20 22 -25 0 -6 -13 0 -28 13 -19 15 -25 26 -18 30 6 5 3 8 -10 8 -11 0
-28 6 -38 13 -17 12 -17 17 -5 50 13 36 29 41 29 9z m217 -159 c2 -6 -4 -10
-14 -10 -34 0 -39 -3 -40 -25 0 -13 1 -17 4 -10 3 6 9 10 14 7 5 -4 6 0 3 8
-3 8 2 14 11 14 17 0 17 0 9 -21 -3 -9 -13 -16 -21 -16 -8 0 -11 -5 -7 -11 5
-8 2 -9 -11 -1 -24 13 -28 41 -9 59 8 8 14 11 14 7 0 -5 5 -3 12 4 14 14 30
11 35 -5z m-261 -4 c10 -17 -13 -36 -27 -22 -12 12 -4 33 11 33 5 0 12 -5 16
-11z m282 -21 c-2 -6 -10 -14 -16 -16 -7 -2 -10 2 -6 12 7 18 28 22 22 4z
m-18 -38 c0 -5 -5 -10 -11 -10 -5 0 -7 5 -4 10 3 6 8 10 11 10 2 0 4 -4 4 -10z
m-234 -91 c10 -17 -13 -36 -27 -22 -12 12 -4 33 11 33 5 0 12 -5 16 -11z m200
0 c10 -17 -13 -36 -27 -22 -12 12 -4 33 11 33 5 0 12 -5 16 -11z m-170 -130
c10 -17 -13 -36 -27 -22 -12 12 -4 33 11 33 5 0 12 -5 16 -11z m150 0 c10 -17
-13 -36 -27 -22 -12 12 -4 33 11 33 5 0 12 -5 16 -11z m-463 -196 c-7 -2 -21
-2 -30 0 -10 3 -4 5 12 5 17 0 24 -2 18 -5z m700 -10 c-7 -2 -21 -2 -30 0 -10
3 -4 5 12 5 17 0 24 -2 18 -5z"/>
<path d="M490 1673 c0 -8 5 -11 10 -8 6 3 10 1 10 -4 0 -6 4 -11 9 -11 5 0 7
8 4 18 -5 22 -33 25 -33 5z"/>
</g>
</svg>
