<?xml version="1.0" standalone="no"?>
<!DOCTYPE svg PUBLIC "-//W3C//DTD SVG 20010904//EN"
 "http://www.w3.org/TR/2001/REC-SVG-20010904/DTD/svg10.dtd">
<svg version="1.0" xmlns="http://www.w3.org/2000/svg"
 width="284.000000pt" height="490.000000pt" viewBox="0 0 284.000000 490.000000"
 preserveAspectRatio="xMidYMid meet">

<g transform="translate(0.000000,490.000000) scale(0.100000,-0.100000)"
fill="#000000" stroke="none">
<path d="M1447 4776 c-4 -10 -1 -13 9 -9 15 6 19 23 5 23 -5 0 -11 -7 -14 -14z"/>
<path d="M615 4366 c-2 -6 -5 -22 -7 -36 -2 -20 -9 -26 -35 -28 -28 -3 -32 -7
-35 -35 -3 -27 -7 -31 -33 -32 l-30 0 -5 -105 -5 -105 -32 -3 c-30 -3 -33 -6
-33 -37 0 -31 -3 -34 -32 -37 -28 -2 -34 -8 -38 -33 -4 -24 -11 -31 -35 -35
-25 -4 -31 -10 -33 -38 -3 -29 -6 -32 -38 -32 l-34 0 0 -199 0 -200 33 -3 c30
-3 32 -5 32 -43 0 -38 -2 -40 -32 -43 l-33 -3 0 -70 0 -69 -35 0 -35 0 0 -554
0 -555 33 -3 32 -3 3 -137 3 -137 32 -3 c29 -3 32 -6 35 -40 l3 -38 63 0 63 0
6 -157 c4 -87 7 -321 7 -519 0 -371 1 -379 38 -367 6 3 12 15 12 28 0 36 25
43 131 38 l95 -6 3 -71 c1 -39 -1 -117 -5 -173 l-6 -103 -34 0 -34 0 0 -70 0
-70 -70 0 -70 0 0 -35 c0 -31 -3 -35 -25 -35 -31 0 -45 -26 -45 -87 l0 -48 49
-18 c42 -14 88 -17 320 -17 l271 0 0 68 c0 52 -6 78 -25 116 -23 46 -25 59
-25 197 0 86 5 159 11 176 7 15 14 88 17 160 3 90 9 136 17 143 8 6 53 10 111
8 l99 -3 0 -32 0 -33 107 0 108 0 0 -210 0 -210 -35 0 -35 0 0 -70 c0 -45 -4
-70 -11 -70 -6 0 -8 7 -5 16 4 11 -1 10 -20 -5 -15 -12 -33 -21 -40 -21 -7 0
-14 -12 -16 -27 -2 -20 -9 -29 -25 -31 -21 -3 -23 -9 -23 -65 0 -34 -3 -72 -6
-85 l-6 -22 275 0 c210 0 278 3 284 13 4 6 9 202 9 435 1 233 4 426 7 429 4 3
22 2 42 -1 26 -5 35 -12 35 -26 0 -12 12 -26 30 -35 29 -15 30 -18 30 -85 0
-68 1 -70 25 -70 14 0 28 6 30 13 3 6 6 323 8 702 l2 690 35 5 c29 4 36 10 38
31 4 33 11 34 157 38 60 1 113 5 117 7 5 3 8 18 8 35 l0 29 64 0 65 0 3 33 c3
28 7 32 35 35 28 3 32 7 35 35 3 28 7 32 35 35 28 3 32 7 35 35 3 28 7 32 35
35 l32 3 3 72 3 72 33 0 33 0 2 162 2 162 -35 3 -35 3 0 105 0 105 -37 3 -38
3 0 68 c0 75 11 93 51 89 23 -3 24 -1 24 67 l0 70 35 0 35 0 0 95 0 95 -35 5
c-31 4 -35 9 -38 37 -3 28 -7 32 -35 35 -28 3 -32 7 -35 35 l-3 32 -67 3 -67
3 -3 32 -3 32 -67 3 -67 3 -3 32 -3 32 -102 3 -102 3 -3 32 c-3 28 -7 32 -35
35 -28 3 -32 7 -35 36 -3 28 -7 32 -33 32 -27 0 -29 3 -29 35 0 33 -2 35 -35
35 -34 0 -35 1 -35 40 0 39 1 40 36 40 34 0 35 1 32 33 -3 28 -7 32 -35 35
-28 3 -32 7 -35 35 -3 28 -7 32 -33 32 -27 0 -31 4 -35 35 l-5 35 -105 0 -105
0 -3 -32 c-3 -30 -6 -33 -38 -33 -33 0 -34 -1 -34 -37 l0 -38 -339 3 c-319 3
-340 2 -344 -15 -3 -10 -5 6 -6 35 l-1 52 -34 0 c-32 0 -35 3 -38 33 l-3 32
-98 1 c-64 1 -100 -3 -102 -10z m545 -266 l0 -70 -65 0 -65 0 0 70 0 70 65 0
65 0 0 -70z m358 -2 l3 -68 -71 0 -70 0 0 70 0 71 68 -3 67 -3 3 -67z m-566
-40 c3 -29 7 -33 36 -36 29 -3 32 -6 32 -38 l0 -34 75 0 75 0 0 35 c0 32 2 35
30 35 l30 0 0 -70 0 -70 -29 0 c-26 0 -30 -4 -33 -32 -3 -30 -6 -33 -35 -33
-31 0 -33 -2 -33 -32 l0 -33 135 0 135 0 2 55 c0 30 1 61 2 68 1 8 -10 11 -31
9 l-33 -4 0 71 0 71 29 0 c26 0 30 -4 33 -32 l3 -33 68 -3 67 -3 0 -99 0 -100
-35 0 c-33 0 -35 -2 -35 -34 0 -32 -3 -35 -32 -38 -30 -3 -33 -6 -33 -38 l-1
-35 -137 -5 -137 -5 0 43 c0 41 0 42 -35 42 -33 0 -35 2 -35 35 0 33 -2 35
-35 35 l-35 0 0 105 0 105 -35 0 -35 0 0 65 0 65 29 0 c26 0 30 -4 33 -32z
m628 -68 c0 -27 -3 -30 -30 -30 -27 0 -30 3 -30 30 0 27 3 30 30 30 27 0 30
-3 30 -30z m-222 -407 c-10 -2 -28 -2 -40 0 -13 2 -5 4 17 4 22 1 32 -1 23 -4z
m-332 -60 c1 -7 2 -37 3 -67 1 -54 1 -55 34 -58 l32 -3 3 -67 3 -67 32 -3 c28
-3 32 -7 35 -35 3 -30 6 -33 38 -33 32 0 34 -2 34 -35 l0 -35 105 0 105 0 0
-35 c0 -32 2 -35 30 -35 28 0 30 3 30 35 0 33 2 35 35 35 l35 0 0 70 0 70 40
0 40 0 0 -110 0 -110 -35 0 -35 0 2 -312 3 -313 30 0 30 -1 3 -72 3 -72 -36 0
c-33 0 -35 -2 -35 -35 0 -33 -2 -35 -35 -35 -33 0 -35 -2 -35 -35 l0 -35 -282
2 -283 3 -3 32 c-3 28 -7 32 -35 35 -28 3 -32 7 -35 36 -3 29 -6 32 -38 32
l-34 0 0 70 0 70 35 0 35 0 0 314 0 315 -32 3 -33 3 -3 108 -3 107 41 0 40 0
0 -70 0 -70 35 0 c33 0 35 -2 35 -34 0 -32 2 -34 41 -38 22 -2 43 0 45 4 2 4
13 5 24 3 18 -4 20 2 20 61 l0 64 -35 0 -35 0 0 104 0 105 -32 3 c-33 3 -33 3
-36 62 -2 32 -1 65 2 73 7 18 70 14 72 -4z m-199 -215 c-2 -24 -4 -5 -4 42 0
47 2 66 4 43 2 -24 2 -62 0 -85z m1113 -88 l0 -40 -105 0 -105 0 0 40 0 40
105 0 105 0 0 -40z m-1020 -40 c-9 -16 -8 -18 5 -14 11 5 14 2 8 -12 -4 -12
-3 -15 5 -10 7 4 12 2 12 -3 0 -6 -11 -11 -25 -11 -19 0 -25 5 -25 23 0 13 5
28 12 35 17 17 20 15 8 -8z m71 -94 c5 3 7 10 4 15 -4 5 9 9 27 9 23 0 29 -3
19 -9 -8 -5 -11 -16 -8 -25 5 -13 -1 -16 -28 -16 -33 0 -35 2 -34 33 1 23 3
26 6 9 2 -12 9 -20 14 -16z m-251 -146 c0 -27 -3 -30 -30 -30 -27 0 -30 3 -30
30 0 27 3 30 30 30 27 0 30 -3 30 -30z m990 0 c0 -28 -3 -30 -35 -30 -32 0
-35 2 -35 30 0 28 3 30 35 30 32 0 35 -2 35 -30z m-990 -635 c0 -32 -2 -35
-30 -35 -28 0 -30 3 -30 35 0 32 2 35 30 35 28 0 30 -3 30 -35z m1060 0 c0
-33 -2 -35 -35 -35 -33 0 -35 2 -35 35 0 33 2 35 35 35 33 0 35 -2 35 -35z
m-1060 -630 c0 -32 -2 -35 -30 -35 -28 0 -30 3 -30 35 0 32 2 35 30 35 28 0
30 -3 30 -35z m1060 0 c0 -33 -2 -35 -35 -35 -33 0 -35 2 -35 35 0 33 2 35 35
35 33 0 35 -2 35 -35z m-140 -1615 c0 -28 -3 -30 -35 -30 -32 0 -35 2 -35 30
0 28 3 30 35 30 32 0 35 -2 35 -30z"/>
<path d="M1031 3008 c-1 -21 4 -28 17 -28 11 0 13 3 6 8 -7 4 -14 16 -17 27
-4 15 -5 14 -6 -7z"/>
</g>
</svg>
