<?xml version="1.0" standalone="no"?>
<!DOCTYPE svg PUBLIC "-//W3C//DTD SVG 20010904//EN"
 "http://www.w3.org/TR/2001/REC-SVG-20010904/DTD/svg10.dtd">
<svg version="1.0" xmlns="http://www.w3.org/2000/svg"
 width="277.000000pt" height="507.000000pt" viewBox="0 0 277.000000 507.000000"
 preserveAspectRatio="xMidYMid meet">

<g transform="translate(0.000000,507.000000) scale(0.100000,-0.100000)"
fill="#000000" stroke="none">
<path d="M1370 4911 c0 -5 7 -11 14 -14 10 -4 13 -1 9 9 -6 15 -23 19 -23 5z"/>
<path d="M977 4504 c-4 -4 -7 -21 -7 -38 0 -29 -3 -31 -32 -31 -30 0 -33 -3
-36 -32 -3 -28 -7 -32 -35 -35 -28 -3 -32 -7 -35 -35 -3 -32 -2 -33 32 -33 35
0 36 -1 36 -40 0 -39 -1 -40 -35 -40 -33 0 -35 -2 -35 -35 0 -32 -2 -35 -29
-35 -26 0 -30 -4 -33 -32 -3 -29 -7 -33 -35 -36 -28 -3 -32 -7 -35 -35 l-3
-32 -102 -3 -102 -3 -3 -32 -3 -32 -67 -3 -67 -3 -3 -32 -3 -32 -67 -3 -67 -3
-3 -32 c-3 -28 -7 -32 -35 -35 -28 -3 -32 -7 -35 -35 -3 -28 -7 -33 -38 -37
l-35 -5 0 -95 0 -95 35 0 35 0 0 -70 c0 -68 1 -70 24 -67 40 4 51 -14 51 -89
l0 -68 -38 -3 -37 -3 0 -105 0 -105 -35 -3 -35 -3 2 -162 2 -162 33 0 33 0 3
-72 3 -72 32 -3 c28 -3 32 -7 35 -35 3 -28 7 -32 35 -35 28 -3 32 -7 35 -35 3
-28 7 -32 35 -35 28 -3 32 -7 35 -35 l3 -33 65 0 64 0 0 -29 c0 -17 3 -32 8
-35 4 -2 57 -6 117 -7 146 -4 153 -5 157 -38 2 -21 9 -27 38 -31 l35 -5 2
-690 c2 -379 5 -696 8 -702 2 -7 16 -13 30 -13 24 0 25 2 25 70 0 67 1 70 30
85 18 9 30 23 30 35 0 14 9 21 35 26 20 3 38 4 42 1 3 -3 6 -197 7 -431 l1
-425 23 -23 c22 -22 29 -23 275 -28 138 -3 255 -3 259 0 4 3 4 49 1 102 -5 89
-8 97 -27 100 -15 2 -22 11 -24 31 -2 15 -9 27 -16 27 -7 0 -25 9 -40 21 -19
15 -24 16 -20 5 3 -9 1 -16 -5 -16 -7 0 -11 25 -11 70 l0 70 -35 0 -35 0 0
210 0 210 108 0 107 0 0 33 0 32 99 3 c58 2 103 -2 111 -8 8 -7 14 -53 17
-143 3 -72 10 -145 17 -160 6 -17 11 -90 11 -176 0 -138 -2 -151 -25 -197 -19
-38 -25 -64 -25 -115 l0 -67 158 -7 c205 -10 365 -2 431 21 l51 19 0 48 c0 61
-14 87 -45 87 -22 0 -25 4 -25 35 l0 35 -70 0 -70 0 0 70 0 70 -34 0 -34 0 -6
103 c-4 56 -6 134 -5 173 l3 71 95 6 c106 5 131 -2 131 -37 0 -13 6 -26 13
-28 36 -14 37 -5 37 365 0 199 3 433 7 520 l6 157 63 0 63 0 3 38 c3 34 6 37
35 40 l32 3 3 137 3 137 33 3 32 3 0 555 0 554 -35 0 -35 0 0 69 0 70 -32 3
c-31 3 -33 5 -33 43 0 38 2 40 33 43 l32 3 0 200 0 199 -34 0 c-32 0 -35 3
-38 32 -2 28 -8 34 -33 38 -24 4 -31 11 -35 35 -4 25 -10 31 -38 33 -29 3 -32
6 -32 37 0 31 -3 34 -32 37 l-33 3 -5 105 -5 105 -30 0 c-26 1 -30 5 -33 32
-3 28 -7 32 -35 35 -28 3 -33 7 -37 38 l-5 35 -100 0 -100 0 -3 -32 c-3 -30
-6 -33 -38 -33 l-34 0 -1 -52 c-1 -29 -3 -45 -6 -35 -4 17 -25 18 -344 15
l-339 -3 0 38 c0 36 -1 37 -34 37 -32 0 -35 3 -38 33 l-3 32 -101 3 c-55 1
-103 0 -107 -4z m483 -274 l0 -70 -70 0 -70 0 0 63 c0 35 3 67 7 70 3 4 35 7
70 7 l63 0 0 -70z m350 0 l0 -70 -65 0 -65 0 0 70 0 70 65 0 65 0 0 -70z m140
-75 l0 -65 -35 0 -35 0 0 -105 0 -105 -35 0 c-33 0 -35 -2 -35 -35 0 -33 -2
-35 -35 -35 -35 0 -35 -1 -35 -42 l0 -43 -137 5 -137 5 -1 35 c0 32 -3 35 -32
38 -30 3 -33 6 -33 38 0 32 -2 34 -35 34 l-35 0 0 100 0 99 68 3 67 3 3 33 c3
28 7 32 33 32 l29 0 0 -71 0 -71 -32 4 c-22 2 -33 -1 -32 -9 1 -7 2 -38 3 -68
l1 -55 135 0 135 0 0 33 c0 30 -2 32 -32 32 -30 0 -33 3 -36 33 -3 28 -7 32
-33 32 l-29 0 0 70 0 70 30 0 c28 0 30 -3 30 -35 l0 -35 75 0 75 0 0 34 c0 32
3 35 33 38 28 3 32 7 35 36 3 28 7 32 33 32 l29 0 0 -65z m-630 -35 c0 -27 -3
-30 -30 -30 -27 0 -30 3 -30 30 0 27 3 30 30 30 27 0 30 -3 30 -30z m208 -407
c-10 -2 -28 -2 -40 0 -13 2 -5 4 17 4 22 1 32 -1 23 -4z m357 -118 l0 -70 -32
-3 -33 -3 0 -105 0 -104 -35 0 -35 0 0 -64 c0 -59 2 -65 20 -61 11 2 22 1 24
-3 2 -4 23 -6 45 -4 39 4 41 6 41 38 0 32 2 34 35 34 l35 0 0 70 0 70 40 0 41
0 -3 -107 -3 -108 -32 -3 -33 -3 0 -315 0 -314 35 0 35 0 0 -70 0 -70 -34 0
c-32 0 -35 -3 -38 -32 -3 -29 -7 -33 -35 -36 -28 -3 -32 -7 -35 -35 l-3 -32
-282 -3 -283 -2 0 35 c0 33 -2 35 -35 35 -33 0 -35 2 -35 35 0 33 -2 35 -35
35 l-36 0 3 72 3 72 30 1 30 0 3 313 2 312 -35 0 -35 0 0 110 0 110 40 0 40 0
0 -70 0 -70 35 0 c33 0 35 -2 35 -35 0 -32 2 -35 30 -35 28 0 30 3 30 35 l0
35 105 0 105 0 0 35 c0 33 2 35 34 35 32 0 35 3 38 33 3 28 7 32 35 35 l32 3
3 67 3 67 33 3 c32 3 32 4 33 58 1 30 3 59 4 64 1 6 3 13 4 16 0 3 16 4 34 2
l32 -3 0 -70z m132 -157 c-2 -24 -4 -5 -4 42 0 47 2 66 4 43 2 -24 2 -62 0
-85z m-907 -88 l0 -40 -105 0 -105 0 0 40 0 40 105 0 105 0 0 -40z m830 -66
c0 -19 -5 -24 -25 -24 -14 0 -25 5 -25 11 0 5 5 7 12 3 8 -5 9 -2 5 10 -6 14
-3 17 8 12 13 -5 14 -2 4 17 -11 20 -11 21 4 8 10 -7 17 -24 17 -37z m-70 -64
c0 -28 -3 -30 -35 -30 -27 0 -33 3 -28 16 3 9 0 20 -8 25 -10 6 -4 9 19 9 18
0 31 -4 27 -9 -3 -5 -1 -12 5 -16 5 -3 10 3 10 14 0 12 2 21 5 21 3 0 5 -13 5
-30z m-690 -150 c0 -28 -3 -30 -35 -30 -32 0 -35 2 -35 30 0 28 3 30 35 30 32
0 35 -2 35 -30z m980 0 c0 -27 -3 -30 -30 -30 -27 0 -30 3 -30 30 0 27 3 30
30 30 27 0 30 -3 30 -30z m-1050 -635 c0 -33 -2 -35 -35 -35 -33 0 -35 2 -35
35 0 33 2 35 35 35 33 0 35 -2 35 -35z m1050 0 c0 -32 -2 -35 -30 -35 -28 0
-30 3 -30 35 0 32 2 35 30 35 28 0 30 -3 30 -35z m-1050 -630 c0 -33 -2 -35
-35 -35 -33 0 -35 2 -35 35 0 33 2 35 35 35 33 0 35 -2 35 -35z m1050 0 c0
-32 -2 -35 -30 -35 -28 0 -30 3 -30 35 0 32 2 35 30 35 28 0 30 -3 30 -35z
m-910 -1615 c0 -28 -3 -30 -35 -30 -32 0 -35 2 -35 30 0 28 3 30 35 30 32 0
35 -2 35 -30z"/>
<path d="M1800 3141 c0 -11 -6 -22 -12 -24 -8 -3 -6 -6 5 -6 12 -1 17 7 17 24
0 14 -2 25 -5 25 -3 0 -5 -9 -5 -19z"/>
</g>
</svg>
