<?xml version="1.0" standalone="no"?>
<!DOCTYPE svg PUBLIC "-//W3C//DTD SVG 20010904//EN"
 "http://www.w3.org/TR/2001/REC-SVG-20010904/DTD/svg10.dtd">
<svg version="1.0" xmlns="http://www.w3.org/2000/svg"
 width="230.000000pt" height="228.000000pt" viewBox="0 0 230.000000 228.000000"
 preserveAspectRatio="xMidYMid meet">

<g transform="translate(0.000000,228.000000) scale(0.100000,-0.100000)"
fill="#000000" stroke="none">
<path d="M1000 2070 l0 -210 -500 0 -500 0 0 -75 0 -75 205 0 205 0 0 -215 0
-215 -205 0 -205 0 0 -80 0 -80 500 0 500 0 0 -215 0 -215 -500 0 -500 0 0
-80 0 -80 205 0 205 0 0 -215 0 -215 -205 0 -205 0 0 -50 0 -50 1150 0 1150 0
0 50 0 50 -280 0 -280 0 0 215 0 215 280 0 280 0 0 375 0 375 -280 0 -280 0 0
215 0 215 280 0 280 0 0 285 0 285 -65 0 -65 0 0 -210 0 -210 -510 0 -510 0 0
210 0 210 -75 0 -75 0 0 -210z m580 -575 l0 -215 -505 0 -505 0 0 215 0 215
505 0 505 0 0 -215z m590 -590 l0 -215 -510 0 -510 0 0 215 0 215 510 0 510 0
0 -215z m-590 -590 l0 -215 -505 0 -505 0 0 215 0 215 505 0 505 0 0 -215z"/>
</g>
</svg>
