<?xml version="1.0" standalone="no"?>
<!DOCTYPE svg PUBLIC "-//W3C//DTD SVG 20010904//EN"
 "http://www.w3.org/TR/2001/REC-SVG-20010904/DTD/svg10.dtd">
<svg version="1.0" xmlns="http://www.w3.org/2000/svg"
 width="230.000000pt" height="228.000000pt" viewBox="0 0 230.000000 228.000000"
 preserveAspectRatio="xMidYMid meet">

<g transform="translate(0.000000,228.000000) scale(0.100000,-0.100000)"
fill="#000000" stroke="none">
<path d="M918 2273 c-60 -3 -68 -6 -68 -23 0 -17 -7 -20 -40 -20 -33 0 -40 -3
-40 -20 0 -17 -7 -20 -45 -20 -38 0 -45 -3 -45 -20 0 -17 -7 -20 -40 -20 -33
0 -40 -3 -40 -20 0 -13 -7 -20 -20 -20 -13 0 -20 -7 -20 -20 0 -13 -7 -20 -20
-20 -13 0 -20 -7 -20 -20 0 -15 -7 -20 -26 -20 -20 0 -25 -4 -20 -16 3 -9 6
-18 6 -20 0 -2 9 -4 20 -4 11 0 20 7 20 15 0 8 9 15 20 15 13 0 20 7 20 20 0
13 7 20 20 20 13 0 20 7 20 20 0 17 7 20 45 20 38 0 45 3 45 20 0 17 7 20 40
20 33 0 40 3 40 20 0 17 7 20 41 20 32 0 42 4 46 20 5 17 14 20 64 20 52 0 59
2 59 20 0 19 7 20 165 20 158 0 165 -1 165 -20 0 -18 7 -20 59 -20 50 0 59 -3
64 -20 4 -16 14 -20 46 -20 34 0 41 -3 41 -20 0 -17 7 -20 39 -20 30 0 40 -4
44 -20 4 -16 14 -20 46 -20 30 0 41 -4 41 -15 0 -8 9 -15 20 -15 13 0 20 -7
20 -20 0 -13 7 -20 20 -20 14 0 20 -7 20 -21 0 -15 5 -20 23 -17 12 2 22 10
22 18 0 8 -10 16 -22 18 -15 2 -23 10 -23 23 0 12 -7 19 -20 19 -13 0 -20 7
-20 20 0 13 -7 20 -20 20 -13 0 -20 7 -20 20 0 17 -7 20 -40 20 -33 0 -40 3
-40 20 0 17 -7 20 -45 20 -38 0 -45 3 -45 20 0 17 -7 20 -40 20 -32 0 -40 4
-40 18 0 17 -12 20 -97 25 -97 7 -294 6 -425 0z"/>
<path d="M2170 2069 l0 -211 -135 4 -135 4 0 -38 c0 -31 4 -38 20 -38 16 0 20
-7 20 -36 0 -27 5 -37 20 -41 18 -5 20 -14 20 -79 0 -67 2 -74 20 -74 20 0 20
-7 20 -780 l0 -780 140 0 140 0 0 50 0 50 -115 0 -115 0 0 215 0 215 58 2 c31
0 83 0 115 -1 l57 -3 0 377 0 377 -57 -3 c-32 -1 -84 -1 -115 -1 l-58 2 0 135
c0 135 0 136 -25 145 -23 9 -25 14 -25 80 l0 70 140 0 140 0 0 285 0 285 -65
0 -65 0 0 -211z m0 -1164 l0 -215 -50 0 -50 0 0 215 0 215 50 0 50 0 0 -215z"/>
<path d="M1020 2090 c0 -18 -7 -20 -61 -20 -52 0 -62 -3 -66 -20 -4 -16 -14
-20 -44 -20 -32 0 -39 -3 -39 -20 0 -17 -7 -20 -40 -20 -33 0 -40 -3 -40 -20
0 -15 -7 -20 -25 -20 -18 0 -25 -5 -25 -20 0 -13 -7 -20 -20 -20 -13 0 -20 -7
-20 -20 0 -13 -7 -20 -20 -20 -13 0 -20 -7 -20 -20 0 -13 -7 -20 -20 -20 -17
0 -20 -7 -20 -40 0 -33 -3 -40 -17 -38 -14 2 -19 -5 -21 -34 -2 -29 -8 -37
-25 -40 -19 -3 -21 -8 -18 -60 2 -53 1 -58 -18 -58 -20 0 -21 -6 -21 -100 0
-93 -1 -100 -20 -100 -18 0 -20 -7 -20 -60 0 -53 2 -60 20 -60 20 0 20 -6 20
-425 -1 -408 -1 -425 -19 -425 -16 0 -20 -9 -23 -49 -4 -65 0 -81 23 -81 18 0
19 -8 19 -130 l0 -130 40 0 40 0 0 95 0 94 82 -2 82 -2 -2 -40 c0 -22 1 -64 5
-93 4 -42 9 -52 24 -52 17 0 19 9 19 94 l0 93 125 2 125 2 0 -96 c0 -88 1 -95
20 -95 19 0 20 7 20 95 l0 95 125 0 125 0 0 -95 c0 -88 2 -95 20 -95 18 0 20
8 22 92 l3 93 123 3 122 3 0 -96 c0 -88 1 -95 20 -95 19 0 20 7 20 95 l0 95
85 0 85 0 0 -95 0 -95 40 0 40 0 0 129 c0 127 0 130 23 133 19 3 22 10 25 60
3 52 1 57 -20 60 l-23 3 -3 428 -2 427 -633 2 c-347 2 -665 2 -704 1 l-73 -1
0 59 0 59 705 0 704 0 3 -57 c3 -50 6 -58 23 -58 17 0 20 8 23 58 3 55 2 57
-23 57 l-25 0 0 100 c0 93 -1 100 -20 100 -18 0 -20 7 -20 60 0 53 -2 60 -20
60 -17 0 -20 7 -20 41 0 36 -2 40 -20 34 -18 -6 -20 -2 -20 34 0 34 -3 41 -20
41 -13 0 -20 7 -20 20 0 13 -7 20 -20 20 -13 0 -20 7 -20 20 0 13 -7 20 -19
20 -10 0 -21 9 -24 20 -3 12 -14 20 -26 20 -14 0 -21 6 -21 20 0 17 -7 20 -40
20 -33 0 -40 3 -40 20 0 17 -7 20 -39 20 -30 0 -40 4 -44 20 -4 17 -14 20 -66
20 -54 0 -61 2 -61 20 0 19 -7 20 -125 20 -118 0 -125 -1 -125 -20z m250 -395
l0 -295 -125 0 -125 0 0 295 0 295 125 0 125 0 0 -295z m-290 -20 l0 -275
-125 0 -125 0 0 235 0 235 40 0 c33 0 40 3 40 20 0 17 7 20 45 20 38 0 45 3
45 20 0 17 7 20 40 20 l40 0 0 -275z m410 255 c0 -17 7 -20 45 -20 38 0 45 -3
45 -20 0 -17 7 -20 40 -20 l40 0 0 -235 0 -235 -125 0 -125 0 0 275 0 275 40
0 c33 0 40 -3 40 -20z m-703 -335 l2 -195 -85 0 -84 0 0 60 c0 56 2 60 23 60
20 0 22 4 22 57 0 51 2 58 20 58 16 0 20 7 20 35 0 27 5 36 20 40 15 4 21 16
23 43 2 27 8 37 20 37 15 0 17 -19 19 -195z m961 158 c-3 -33 0 -38 20 -41 18
-3 22 -10 22 -38 0 -27 4 -34 20 -34 18 0 20 -7 20 -60 0 -53 2 -60 20 -60 18
0 20 -7 20 -60 l0 -60 -85 0 -85 0 0 195 0 195 25 0 c24 0 26 -3 23 -37z
m-960 -668 c3 -75 2 -76 -20 -73 -13 2 -23 10 -23 18 0 8 -10 16 -22 18 -18 3
-23 -2 -23 -17 0 -14 6 -21 20 -21 17 0 20 -7 20 -40 0 -33 -3 -40 -20 -40
-19 0 -20 -7 -20 -115 0 -108 1 -115 20 -115 17 0 20 -7 20 -40 0 -33 -3 -40
-20 -40 -13 0 -20 -7 -20 -20 0 -15 7 -20 25 -20 19 0 25 5 25 21 0 14 5 19
18 17 15 -3 17 -16 17 -101 l0 -97 -82 0 -83 0 0 368 c0 203 2 371 4 373 2 2
40 3 83 2 l78 -2 3 -76z m292 -292 l0 -373 -125 0 -125 0 0 373 0 372 125 0
125 0 0 -372z m290 1 l0 -374 -125 0 -125 0 0 373 0 372 125 2 125 1 0 -374z
m290 1 l0 -375 -125 0 -125 0 0 368 c0 203 3 371 6 374 3 4 59 7 125 7 l119 2
0 -376z m210 -1 l0 -374 -85 0 -85 0 0 374 0 375 85 -1 85 -1 0 -373z m-1080
21 c0 -107 -1 -115 -19 -115 -25 0 -27 11 -23 131 3 90 5 99 23 99 18 0 19 -8
19 -115z m1160 -490 l0 -55 -705 0 -705 0 0 55 0 55 705 0 705 0 0 -55z"/>
<path d="M560 970 c0 -33 3 -40 20 -40 17 0 20 7 20 40 0 33 -3 40 -20 40 -17
0 -20 -7 -20 -40z"/>
<path d="M560 660 c0 -33 3 -40 20 -40 17 0 20 7 20 40 0 33 -3 40 -20 40 -17
0 -20 -7 -20 -40z"/>
<path d="M440 1970 c0 -13 -7 -20 -20 -20 -17 0 -20 -7 -20 -39 0 -37 -2 -39
-37 -45 -21 -3 -111 -6 -200 -6 l-163 0 0 -75 0 -75 135 0 135 0 0 -75 c0 -68
-2 -75 -20 -75 -19 0 -20 -7 -20 -140 l0 -140 -115 0 -115 0 0 -80 0 -80 115
0 115 0 0 -215 0 -215 -115 0 -115 0 0 -80 0 -80 115 0 115 0 0 -215 0 -215
-115 0 -115 0 0 -50 0 -50 135 0 135 0 0 776 c0 767 0 776 20 781 18 5 20 14
20 79 0 67 2 74 20 74 17 0 20 7 20 39 0 33 4 40 23 43 18 2 23 10 25 41 3 29
7 37 23 37 16 0 19 7 19 40 0 33 3 40 20 40 13 0 20 7 20 20 0 13 -7 20 -20
20 -13 0 -20 -7 -20 -20z"/>
<path d="M1810 1970 c0 -16 5 -21 23 -18 12 2 22 10 22 18 0 8 -10 16 -22 18
-18 3 -23 -2 -23 -18z"/>
<path d="M1852 1913 c2 -30 7 -38 23 -38 16 0 21 8 23 38 3 34 1 37 -23 37
-24 0 -26 -3 -23 -37z"/>
</g>
</svg>
