<?xml version="1.0" standalone="no"?>
<!DOCTYPE svg PUBLIC "-//W3C//DTD SVG 20010904//EN"
 "http://www.w3.org/TR/2001/REC-SVG-20010904/DTD/svg10.dtd">
<svg version="1.0" xmlns="http://www.w3.org/2000/svg"
 width="133.000000pt" height="133.000000pt" viewBox="0 0 133.000000 133.000000"
 preserveAspectRatio="xMidYMid meet">

<g transform="translate(0.000000,133.000000) scale(0.100000,-0.100000)"
fill="#000000" stroke="none">
<path d="M230 1300 c0 -21 -5 -30 -17 -32 -10 -1 -25 -2 -33 -4 -8 -1 -21 -2
-27 -3 -14 -1 -16 -60 -5 -126 6 -31 12 -40 29 -41 47 -2 53 -11 53 -69 0 -52
-5 -61 -32 -56 -5 0 -8 -6 -8 -15 0 -13 -3 -14 -14 -5 -11 10 -15 8 -20 -6 -3
-11 -4 -9 -3 7 2 19 9 27 32 32 l30 7 -32 -3 c-20 -1 -34 3 -37 11 -3 8 -21
13 -45 13 l-40 0 -3 123 -3 122 -27 3 -28 3 0 -217 c0 -212 0 -216 20 -211 31
8 42 -23 33 -96 -4 -34 -6 -65 -5 -69 1 -5 -9 -8 -23 -8 -24 0 -25 -3 -25 -56
0 -52 1 -55 23 -52 21 3 22 0 22 -72 0 -70 -1 -75 -23 -78 -22 -3 -22 -6 -22
-144 0 -135 1 -140 20 -135 25 6 34 -7 26 -39 -4 -15 -14 -24 -26 -24 -15 0
-20 -7 -20 -30 l0 -29 375 -1 c369 0 375 0 375 20 0 17 7 20 50 20 43 0 50 -3
50 -20 0 -18 7 -20 71 -20 62 0 70 2 59 15 -7 8 -16 12 -21 10 -13 -8 -29 30
-29 69 0 35 1 36 40 36 l40 0 0 -40 0 -40 45 0 c41 0 45 -2 45 -25 0 -25 1
-25 90 -25 89 0 90 0 90 25 0 20 5 25 25 25 25 0 25 1 25 85 l0 85 -31 0 -32
0 6 68 c4 37 7 78 7 91 0 20 4 23 25 19 l25 -5 0 133 0 133 -27 3 c-16 2 -27
6 -25 11 1 4 2 27 2 52 0 44 0 44 26 34 l27 -10 -17 26 c-15 22 -15 26 -1 31
13 5 15 34 15 188 l-1 182 -27 -1 c-25 0 -27 3 -28 40 0 22 -2 57 -2 78 l-2
37 -84 0 -85 0 -3 -32 c-3 -31 -6 -33 -45 -36 l-43 -3 0 35 0 36 -130 0 -130
0 0 -35 c0 -35 0 -35 45 -35 l45 0 0 -46 c0 -37 -4 -47 -19 -51 -11 -3 -21
-13 -24 -24 -14 -52 -57 17 -57 90 l0 29 -80 7 c-80 7 -80 7 -80 36 l0 29
-175 0 -175 0 0 -30z m258 -82 l-3 -43 -80 3 c-43 2 -80 4 -81 5 -1 1 1 19 4
40 l4 37 80 0 79 0 -3 -42z m514 -5 c3 -38 3 -38 51 -41 l47 -3 0 -80 c0 -56
-4 -79 -12 -80 -7 -1 -26 -2 -43 -3 l-30 -1 -8 79 c-8 83 -27 116 -54 94 -10
-8 -13 -1 -13 31 0 39 2 41 29 41 27 0 30 -3 33 -37z m255 -105 c-3 -8 -6 -5
-6 6 -1 11 2 17 5 13 3 -3 4 -12 1 -19z m13 -32 c0 -8 3 -23 7 -33 6 -17 5
-17 -15 1 -25 22 -29 46 -7 46 8 0 15 -6 15 -14z m-696 -81 c11 -11 27 -14 53
-11 21 3 30 3 20 0 -20 -6 -20 -51 0 -47 14 3 29 -78 19 -103 -3 -8 -16 -15
-28 -14 -61 5 -68 2 -68 -34 0 -34 -20 -61 -28 -38 -5 15 -32 16 -32 2 0 -5
-22 -10 -49 -10 -53 0 -61 8 -61 60 0 22 -5 29 -29 33 -16 4 -52 4 -80 0 l-51
-6 0 42 0 41 125 0 125 0 0 43 c0 24 3 47 7 50 12 13 61 7 77 -8z m264 -82
l-3 -88 43 -3 c40 -3 42 -4 42 -36 l0 -33 -75 -7 c-42 -4 -80 -4 -85 -1 -6 4
-10 61 -10 131 l0 124 46 0 45 0 -3 -87z m344 42 c-2 -22 -8 -45 -14 -52 -7
-9 -7 -13 0 -13 14 0 21 -48 8 -53 -25 -8 -61 8 -61 28 0 11 -3 22 -6 25 -8 6
-12 34 -10 78 1 33 2 33 44 30 l42 -3 -3 -40z m-240 -242 c-3 -16 -7 -22 -10
-15 -4 13 4 42 11 42 2 0 2 -12 -1 -27z m236 -18 l3 -36 -42 3 c-28 2 -43 8
-45 18 -2 8 -6 24 -9 35 -6 19 -2 21 42 19 48 -2 48 -2 51 -39z m-1038 -85 l0
-40 -45 0 -45 0 0 40 0 40 45 0 45 0 0 -40z m951 -34 c5 -6 9 -29 9 -53 0 -48
-18 -64 -61 -56 -27 5 -27 5 -34 -75 -6 -67 -10 -79 -23 -77 -10 2 -25 4 -34
4 -16 1 -18 12 -18 81 l0 80 40 0 40 0 0 55 c0 53 1 55 26 55 18 0 28 7 32 23
7 22 7 22 10 -3 2 -14 8 -29 13 -34z m-558 -24 c7 -6 17 -9 20 -6 10 10 18
-39 15 -92 l-3 -49 -67 -9 c-88 -11 -98 -6 -98 44 l0 40 -40 0 c-40 0 -40 0
-40 39 0 37 2 40 33 44 62 7 165 1 180 -11z m247 14 c0 -2 -8 -10 -17 -17 -16
-13 -17 -12 -4 4 13 16 21 21 21 13z m-560 -45 c0 -22 5 -43 10 -46 6 -3 10
-17 10 -31 0 -16 6 -24 18 -24 11 0 7 -5 -13 -16 -16 -8 -45 -14 -65 -12 l-35
3 1 50 c0 40 6 92 13 113 1 1 15 2 31 2 28 0 30 -2 30 -39z m374 -143 c-3 -7
-17 -22 -32 -33 l-27 -20 25 32 c25 32 44 43 34 21z m158 -63 c2 -42 2 -80 0
-85 -2 -6 -42 -10 -88 -10 l-84 0 0 45 0 45 40 0 40 0 0 40 0 40 44 0 44 0 4
-75z m428 -3 c0 -43 -2 -81 -5 -83 -2 -3 -20 -3 -40 -1 l-35 4 0 63 c0 85 5
95 46 95 l34 0 0 -78z m-780 -53 c0 -43 3 -50 16 -45 15 6 15 4 0 -18 -9 -14
-16 -32 -16 -39 0 -8 -14 -17 -31 -21 -33 -6 -49 -1 -49 15 0 6 6 7 13 3 9 -6
9 -5 1 7 -7 8 -13 37 -14 64 -4 85 -4 85 40 85 l40 0 0 -51z m520 -39 l0 -80
-38 0 c-37 0 -38 1 -41 38 -1 20 -3 53 -5 72 -4 47 -1 50 45 50 l39 0 0 -80z
m-696 -52 c3 -29 6 -70 6 -91 l0 -38 -42 3 -43 3 0 80 0 80 30 6 c17 4 33 7
36 8 3 0 9 -23 13 -51z m1046 9 c0 -37 -3 -43 -22 -45 -53 -5 -68 6 -68 48 l0
40 45 0 45 0 0 -43z"/>
<path d="M530 519 c0 -5 5 -7 10 -4 6 3 10 8 10 11 0 2 -4 4 -10 4 -5 0 -10
-5 -10 -11z"/>
<path d="M1305 1200 c3 -5 11 -10 16 -10 6 0 7 5 4 10 -3 6 -11 10 -16 10 -6
0 -7 -4 -4 -10z"/>
</g>
</svg>
