<?xml version="1.0" standalone="no"?>
<!DOCTYPE svg PUBLIC "-//W3C//DTD SVG 20010904//EN"
 "http://www.w3.org/TR/2001/REC-SVG-20010904/DTD/svg10.dtd">
<svg version="1.0" xmlns="http://www.w3.org/2000/svg"
 width="230.000000pt" height="228.000000pt" viewBox="0 0 230.000000 228.000000"
 preserveAspectRatio="xMidYMid meet">
<metadata>
Created by potrace 1.16, written by Peter Selinger 2001-2019
</metadata>
<g transform="translate(0.000000,228.000000) scale(0.100000,-0.100000)"
fill="#000000" stroke="none">
<path d="M916 2273 c-47 -3 -59 -8 -63 -24 -4 -14 -14 -19 -40 -19 -26 0 -36
-5 -40 -20 -4 -15 -14 -20 -40 -20 -26 0 -36 -5 -40 -20 -4 -15 -14 -20 -39
-20 -24 0 -34 -4 -34 -16 0 -9 -9 -18 -20 -21 -11 -3 -20 -12 -20 -19 0 -8 -9
-14 -20 -14 -13 0 -20 -7 -20 -20 0 -13 -7 -20 -20 -20 -13 0 -20 -7 -20 -20
0 -13 -7 -20 -20 -20 -13 0 -20 -7 -20 -20 0 -13 -7 -20 -20 -20 -17 0 -20 -7
-20 -40 0 -33 -3 -40 -20 -40 -11 0 -20 -4 -20 -10 0 -6 -70 -10 -190 -10
l-190 0 0 -75 0 -75 150 0 150 0 0 -64 c0 -55 -3 -64 -20 -69 -19 -5 -20 -14
-20 -151 l0 -146 -130 0 -130 0 0 -80 0 -80 130 0 130 0 0 -215 0 -215 -130 0
-130 0 0 -80 0 -80 130 0 130 0 0 -215 0 -215 -130 0 -130 0 0 -50 0 -50 276
0 275 0 -3 110 -3 110 58 0 57 0 0 -55 c0 -42 3 -55 15 -55 10 0 15 -11 15
-35 0 -19 -4 -35 -10 -35 -5 0 -10 7 -10 15 0 9 -10 19 -22 24 -21 8 -23 15
-22 69 1 55 -1 60 -16 52 -25 -13 -28 -26 -26 -115 l1 -80 78 -3 77 -3 0 111
c0 103 1 110 20 110 19 0 20 -7 20 -94 0 -120 6 -126 145 -126 l95 0 0 110 c0
103 1 110 20 110 18 0 20 -7 20 -76 0 -66 2 -75 18 -72 13 2 18 15 20 55 2 42
7 52 24 56 14 4 19 11 15 21 -5 11 0 16 13 16 13 0 20 -7 20 -20 0 -14 6 -20
18 -18 14 3 17 -6 20 -56 3 -52 5 -58 23 -53 16 4 19 0 19 -34 0 -35 3 -39 25
-39 l25 0 0 110 c0 103 1 110 20 110 19 0 20 -7 20 -110 l0 -110 115 0 115 0
0 110 c0 107 1 110 23 110 22 0 22 -2 19 -110 l-3 -110 345 0 346 0 0 50 0 50
-87 1 c-49 0 -114 0 -145 -1 l-58 -1 0 215 0 216 145 0 145 0 0 375 0 375
-145 0 -145 0 0 146 c0 137 -1 146 -20 151 -17 5 -20 14 -20 69 l0 64 165 0
165 0 0 285 0 285 -65 0 -65 0 0 -210 0 -210 -140 0 c-87 0 -140 4 -140 10 0
6 -9 10 -20 10 -17 0 -20 7 -20 40 0 33 -3 40 -20 40 -13 0 -20 7 -20 20 0 13
-7 20 -20 20 -13 0 -20 7 -20 20 0 13 -7 20 -20 20 -13 0 -20 7 -20 20 0 13
-7 20 -20 20 -11 0 -20 7 -20 15 0 8 -9 15 -20 15 -13 0 -20 7 -20 20 0 17 -7
20 -40 20 -34 0 -40 3 -40 21 0 19 -5 21 -43 18 -40 -4 -43 -2 -39 19 4 20 0
22 -37 22 -33 0 -41 3 -41 19 0 16 -11 19 -92 25 -91 6 -290 6 -402 -1z m144
-513 c0 -126 2 -230 4 -230 2 0 11 -3 20 -6 14 -5 16 9 16 115 0 104 2 121 16
121 9 0 18 9 21 20 3 11 13 20 22 20 14 0 16 -14 13 -109 -3 -96 -5 -110 -22
-114 -14 -4 -18 -13 -16 -41 3 -32 1 -36 -20 -36 -21 0 -24 -5 -24 -40 0 -39
-1 -40 -35 -40 l-35 0 0 285 c0 278 0 285 20 285 19 0 20 -7 20 -230z m298
190 c6 0 12 -9 12 -20 0 -13 7 -20 20 -20 16 0 20 -7 20 -35 0 -31 3 -35 25
-35 18 0 25 5 25 20 0 17 6 20 35 18 l35 -2 0 -57 c0 -52 -2 -57 -20 -52 -19
5 -20 0 -20 -76 0 -74 2 -81 20 -81 18 0 20 -7 20 -75 l0 -75 -35 0 -35 0 0
115 c0 108 -1 115 -20 115 -18 0 -20 7 -20 55 0 50 -2 55 -26 61 -22 6 -25 11
-22 43 2 28 -1 37 -15 39 -16 3 -17 -13 -17 -232 0 -229 -1 -236 -20 -236 -20
0 -20 7 -20 271 l0 271 23 -6 c12 -3 28 -6 35 -6z m-388 -76 c0 -67 -2 -75
-17 -70 -16 5 -18 -2 -18 -72 0 -67 -2 -77 -17 -76 -15 2 -18 -7 -18 -57 0
-52 -2 -59 -20 -59 -18 0 -20 7 -20 60 0 52 -2 60 -17 58 -15 -3 -18 6 -21 55
-3 49 -6 57 -22 57 -19 0 -20 -8 -20 -175 0 -168 -1 -175 -20 -175 -19 0 -20
7 -20 230 l0 230 40 -2 c39 -3 40 -4 40 -39 0 -29 5 -38 21 -42 18 -5 21 -12
18 -56 -4 -45 -2 -50 19 -54 21 -4 22 -1 22 54 0 32 5 61 10 64 8 5 7 11 -1
21 -9 11 -7 14 10 14 19 0 21 6 21 55 0 42 3 55 15 55 12 0 15 -15 15 -76z
m641 -121 c1 -61 1 -145 0 -250 -1 -76 -3 -83 -21 -83 -19 0 -20 7 -20 190 0
183 1 190 20 190 17 0 20 -7 21 -47z m197 -390 c-2 -14 -15 -19 -61 -21 -49
-3 -57 -6 -57 -22 0 -13 -7 -20 -20 -20 -13 0 -20 7 -20 20 0 19 -7 20 -94 20
-85 0 -94 -2 -99 -20 -3 -12 -14 -20 -26 -20 -14 0 -21 6 -21 20 0 19 -7 20
-115 20 -108 0 -115 -1 -115 -20 0 -15 -7 -20 -25 -20 -18 0 -25 5 -25 20 0
19 -7 20 -115 20 -108 0 -115 -1 -115 -20 0 -15 -7 -20 -25 -20 -18 0 -25 5
-25 20 0 19 -7 20 -89 20 -81 0 -90 -2 -96 -20 -9 -27 -45 -27 -45 0 0 19 -5
21 -57 18 l-58 -3 3 -32 c3 -28 0 -33 -17 -33 -19 0 -21 6 -21 55 l0 55 671 0
c633 0 670 -1 667 -17z m-1227 -185 c1 -7 1 -65 1 -128 -1 -63 -1 -222 -1
-353 -1 -222 -2 -238 -18 -235 -17 3 -18 23 -17 258 2 458 2 470 19 470 8 0
15 -6 16 -12z m208 6 c17 -4 31 -13 31 -20 0 -8 9 -14 21 -14 19 0 20 -4 16
-60 -5 -59 -5 -60 21 -60 19 0 23 -3 15 -11 -8 -8 -7 -18 2 -36 16 -30 8 -65
-14 -61 -11 2 -17 16 -19 41 -3 29 -7 37 -23 37 -18 0 -20 6 -18 53 3 47 1 52
-19 55 l-22 3 0 -325 c0 -319 0 -326 -20 -326 -20 0 -20 7 -20 365 0 202 4
365 9 365 5 0 23 -3 40 -6z m300 -9 c3 -3 5 -18 6 -33 0 -20 6 -28 21 -30 19
-3 21 -9 20 -60 -1 -51 1 -57 19 -57 16 0 21 8 23 38 3 29 7 37 23 37 16 0 19
7 19 55 0 42 3 55 15 55 12 0 15 -15 15 -74 0 -64 -2 -74 -17 -72 -17 1 -18
-15 -21 -191 l-2 -193 -35 0 -35 0 0 151 c0 142 -1 151 -20 156 -17 5 -20 14
-20 59 0 47 -2 54 -20 54 -20 0 -20 -7 -20 -305 0 -298 0 -305 -20 -305 -20 0
-20 7 -20 366 l0 367 32 -7 c17 -3 34 -9 37 -11z m249 -278 c2 -279 3 -287 22
-287 18 0 20 7 20 74 0 64 3 74 19 79 17 4 19 12 15 73 -5 99 5 194 22 194 10
0 13 -24 12 -107 -1 -161 -1 -163 22 -163 18 0 20 -8 22 -117 3 -105 5 -118
21 -117 13 1 17 -6 17 -32 0 -40 -16 -45 -30 -9 -6 16 -14 23 -25 19 -13 -5
-15 6 -15 70 0 74 -1 76 -25 76 -22 0 -25 -4 -25 -36 0 -27 -5 -37 -20 -41
-27 -7 -30 -86 -4 -81 10 2 19 -3 21 -9 3 -8 -5 -13 -20 -13 -13 0 -39 -3 -56
-6 l-31 -6 0 366 c0 345 1 367 18 364 16 -3 17 -26 20 -291z m276 253 c1 -28
5 -35 21 -35 16 0 20 7 20 33 0 22 4 32 15 32 12 0 15 -8 12 -35 -4 -30 -1
-35 17 -35 20 0 21 -5 21 -115 0 -96 -3 -115 -15 -115 -11 0 -15 -11 -16 -37
0 -21 -2 -48 -5 -60 -3 -18 1 -23 16 -23 16 0 20 -7 20 -35 0 -24 -5 -35 -15
-35 -11 0 -15 -11 -15 -40 0 -28 -4 -40 -14 -40 -12 0 -15 22 -18 108 -2 59 0
108 5 110 18 9 4 23 -20 20 -32 -3 -30 14 -32 -235 -1 -146 -2 -153 -21 -153
-20 0 -20 7 -20 358 0 197 3 362 7 366 17 17 37 -1 37 -34z m556 -245 l0 -215
-80 0 -80 0 0 215 0 215 80 0 80 0 0 -215z m-362 -507 c3 -16 -5 -18 -53 -18
-48 0 -58 -3 -62 -20 -3 -11 -14 -20 -24 -20 -12 0 -19 7 -19 20 0 19 -7 20
-94 20 -85 0 -94 -2 -99 -20 -7 -27 -47 -27 -47 0 0 19 -7 20 -115 20 -108 0
-115 -1 -115 -20 0 -15 -7 -20 -25 -20 -18 0 -25 5 -25 20 0 19 -7 20 -115 20
-108 0 -115 -1 -115 -20 0 -14 -7 -20 -21 -20 -12 0 -23 8 -26 20 -5 18 -14
20 -95 20 -81 0 -90 -2 -95 -20 -3 -11 -14 -20 -24 -20 -12 0 -19 7 -19 20 0
18 -7 20 -55 20 l-55 0 0 -35 c0 -28 -4 -35 -20 -35 -18 0 -20 7 -20 55 l0 55
667 -2 c627 -3 668 -4 671 -20z"/>
</g>
</svg>
